# xmcd CD database file
#
# Track frame offsets:
#	150
#	16562
#	31865
#	53075
#	65870
#	90267
#	104930
#	121425
#	143130
#	161340
#	177940
#	191857
#	206832
#
# Disc length: 2968 seconds
#
# Revision: 0
# Processed by: cddbd v1.5.2PL0 Copyright (c) Steve Scherf et al.
# Submitted via: CDex 1.70beta2
#
DISCID=b40b960d
DTITLE=Jazz On TV Commercials - All Of Me - Jazz On TV Commercials
DYEAR=1900
DGENRE=Jazz
TTITLE0=In The Mood
TTITLE1=When I Fall In Love
TTITLE2=As Time Goes By
TTITLE3=Take Double
TTITLE4=All Of Me
TTITLE5=On The Sunny Side Of The Street
TTITLE6=Take The "A" Train
TTITLE7=If I Had You
TTITLE8=Lullaby Of Birdland
TTITLE9=Misty
TTITLE10=Side By Side
TTITLE11=Stardust
TTITLE12=Take Five
EXTD=
EXTT0=
EXTT1=
EXTT2=
EXTT3=
EXTT4=
EXTT5=
EXTT6=
EXTT7=
EXTT8=
EXTT9=
EXTT10=
EXTT11=
EXTT12=
PLAYORDER=
